<?xml version="1.0" encoding="UTF-8"?>
<svg xmlns="http://www.w3.org/2000/svg" xmlns:xlink="http://www.w3.org/1999/xlink" version="1.1" id="Layer_1" x="0px" y="0px" viewBox="0 0 128.29323 65.19685" style="enable-background:new 0 0 128.29323 65.19685;" xml:space="preserve">
<style type="text/css">
	.st0{fill:#FFFFFF;}
	.st1{fill:#00AA5A;}
</style>
<g>
	<g>
		<path class="st1" d="M22.79834,57.81042c0-1.15915,0.62379-1.78186,1.78186-1.78186h3.0289    c1.15808,0,1.78186-0.44586,1.78186-1.78239V10.9493c0-1.336-0.62379-1.78133-1.78186-1.78133h-3.0289    c-1.15808,0-1.78186-0.62379-1.78186-1.7824V3.1986c0-1.15755,0.62379-1.78133,1.78186-1.78133h4.36543    c8.10707,0,11.58131,7.66175,11.58131,15.32242c0,6.23679-2.2272,11.75976-6.41417,14.2549    c-0.44533,0.26741-0.71328,0.71274-0.71328,1.24757c0,0.4448,0.26794,0.98016,0.71328,1.2465    c3.83114,2.49514,6.41417,7.57278,6.41417,14.6997c0,7.92915-3.11786,15.5909-10.69011,15.5909h-5.25663    c-1.15808,0-1.78186-0.62379-1.78186-1.78133V57.81042z M10.50429,10.59399v43.65218c0,1.33653,0.62378,1.78239,1.78186,1.78239    h4.89972c1.15808,0,1.78186,0.62272,1.78186,1.78186v4.18751c0,1.15754-0.62379,1.78133-1.78186,1.78133H7.20851    c-3.74218,0-5.79092-2.04874-5.79092-5.79145V7.20766c0-3.74111,2.04874-5.79039,5.79092-5.79039h9.97737    c1.15808,0,1.78186,0.62378,1.78186,1.78133v4.18698c0,1.15861-0.62379,1.7824-1.78186,1.7824h-5.25609    C11.12807,9.16797,10.50429,9.79176,10.50429,10.59399"></path>
		<path d="M61.89624,34.51352h-4.0538c-0.55933,0-0.87362-0.31429-0.87362-0.87415v-5.94167h4.71754    c1.92249,0,2.09775,1.22413,2.09775,3.49554C63.78411,33.67399,63.46929,34.51352,61.89624,34.51352 M56.96882,18.96044    c0-0.55986,0.31429-0.87416,0.87362-0.87416h3.84393c1.22359,0,1.85271,0.48955,1.85271,2.79665    c0,1.85218-0.62911,2.86483-2.20162,2.86483h-4.36863V18.96044z M64.51764,25.56638c0-1.18844,3.59995,0.06979,3.59995-5.06805    c0-5.24224-2.79611-6.43122-5.62685-6.43122h-8.49328c-1.01318,0-1.57252,0.5588-1.57252,1.57305v21.31949    c0,1.01425,0.55933,1.57305,1.57252,1.57305h8.73726c3.18125,0,5.76748-1.64283,5.6977-6.88561    C68.32746,24.90158,64.51764,26.75376,64.51764,25.56638"></path>
		<path d="M76.54091,31.54209V21.05707c0-2.23625,1.22361-3.35544,3.59996-3.35544c2.37634,0,3.5994,1.11919,3.5994,3.35544    v10.48503c0,2.23678-1.22306,3.35544-3.5994,3.35544C77.76452,34.89753,76.54091,33.77888,76.54091,31.54209 M88.28416,32.41677    V20.18292c0-4.78839-4.01919-6.67466-8.1433-6.67466c-4.12359,0-8.14384,1.88627-8.14384,6.67466v12.23386    c0,4.78839,4.02025,6.67466,8.14384,6.67466C84.26498,39.09144,88.28416,37.20517,88.28416,32.41677"></path>
		<path d="M94.05165,38.53264h1.39832c1.01372,0,1.57304-0.5588,1.57304-1.57304V15.6401c0-1.01372-0.55933-1.57305-1.57304-1.57305    h-1.39832c-1.01318,0-1.57252,0.55933-1.57252,1.57305v21.3195C92.47913,37.97384,93.03847,38.53264,94.05165,38.53264"></path>
		<path d="M103.52338,28.2918c-1.15329-2.20162-2.55108-1.74724-2.55108-2.48076c0-0.73352,1.39779-0.38514,2.44666-2.48235    l3.8093-7.6186c0.48901-0.94447,0.06979-1.64283-1.01372-1.64283h-1.78239c-0.76868,0-1.328,0.31429-1.67798,1.01372    l-4.08897,8.21415c-0.97855,1.95605-1.15276,2.83021,0.10547,5.2774l4.64829,8.94607    c0.34945,0.66481,0.87362,1.01425,1.64283,1.01425h1.92143c1.08404,0,1.53789-0.69889,1.01372-1.67799L103.52338,28.2918z"></path>
		<path d="M117.25753,39.09133c1.36263,0,2.69116-0.34945,3.63457-0.9434c1.46757-0.90878,1.43295-1.95658,2.06207-1.95658    c0.34944,0,0.45438,0.31429,0.69836,1.15381c0.21042,0.69836,0.55987,1.18738,1.32908,1.18738h0.45385    c0.90878,0,1.39832-0.48901,1.39832-1.39832V15.63999c0-1.01372-0.55933-1.57305-1.57252-1.57305h-1.39832    c-1.01372,0-1.57305,0.55933-1.57305,1.57305V30.6689c0,2.90052-1.57305,4.40378-3.52963,4.40378    c-1.95712,0-3.46038-0.73352-3.46038-3.35438V15.63999c0-1.01372-0.5588-1.57305-1.57305-1.57305h-1.39779    c-1.01372,0-1.57251,0.55933-1.57251,1.57305v16.42616C110.75652,37.30894,114.14658,39.09133,117.25753,39.09133"></path>
	</g>
	<polygon points="66.43826,49.54753 66.48248,50.89791 66.47129,50.89791 65.91835,49.81335 63.64908,45.86129 61.53428,45.86129    61.53428,53.16719 63.21759,53.16719 63.21759,49.48095 63.17285,48.13057 63.18404,48.13057 63.7375,49.21513 66.00625,53.16719    68.12051,53.16719 68.12051,45.86129 66.43826,45.86129  "></polygon>
	<g>
		<path d="M57.05171,50.22225c0,0.52417-0.1124,0.91517-0.33773,1.17352c-0.2248,0.25836-0.56626,0.38727-1.0233,0.38727    c-0.45066,0-0.78786-0.12891-1.01319-0.38727c-0.22533-0.25835-0.33773-0.64935-0.33773-1.17352v-4.36117h-1.91504v4.32814    c0,1.03289,0.27647,1.8069,0.83047,2.31935c0.55294,0.51299,1.36477,0.76868,2.43548,0.76868    c1.0771,0,1.89053-0.25569,2.44027-0.76868c0.54974-0.51245,0.82461-1.28646,0.82461-2.31935v-4.32814h-1.90385V50.22225z"></path>
	</g>
	<rect x="70.84391" y="45.86118" width="1.90385" height="7.30644"></rect>
	<rect x="108.79999" y="45.86118" width="1.90385" height="7.30644"></rect>
	<polygon points="112.68711,47.33302 114.92336,47.33302 114.92336,53.16762 116.82668,53.16762 116.82668,47.33302    119.04109,47.33302 119.04109,45.86119 112.68711,45.86119  "></polygon>
	<polygon points="124.93924,45.86092 124.00861,47.86491 123.44449,49.17108 122.9134,47.86491 121.97213,45.86092    120.00223,45.86092 122.48138,50.49909 122.48138,53.16735 124.39642,53.16735 124.39642,50.49909 126.87558,45.86092  "></polygon>
	<g>
		<path d="M102.62888,47.31118c0.1662-0.05913,0.37447-0.08789,0.62538-0.08789c0.42828,0,0.81715,0.0831,1.16766,0.24824    c0.35051,0.16673,0.68079,0.4155,0.99081,0.7479l0.88533-1.22892c-0.36916-0.40591-0.80596-0.71434-1.31096-0.92476    c-0.50606-0.20988-1.0835-0.31535-1.73285-0.31535c-0.6419,0-1.18951,0.10387-1.6439,0.31002    c-0.45386,0.20669-0.80277,0.48902-1.04568,0.84752c-0.24397,0.35744-0.36543,0.76442-0.36543,1.22253    c0,0.40644,0.08843,0.74364,0.26582,1.01265c0.17686,0.26955,0.4203,0.48369,0.73032,0.64243    c0.3095,0.15821,0.668,0.28606,1.07391,0.38194l1.30617,0.29831c0.25835,0.05913,0.44054,0.14596,0.54761,0.26049    c0.10707,0.114,0.16087,0.2493,0.16087,0.40432c0,0.13957-0.03889,0.26155-0.11613,0.36489    c-0.07777,0.10281-0.20136,0.18112-0.37129,0.23279c-0.16939,0.0522-0.36489,0.07724-0.58649,0.07724    c-0.31003,0-0.62006-0.04847-0.93008-0.14383c-0.31003-0.09589-0.59555-0.22693-0.85764-0.3926    c-0.26208-0.16673-0.48155-0.3569-0.65894-0.57105l-0.8848,1.27367c0.23598,0.25729,0.52524,0.48742,0.86829,0.68558    c0.34306,0.19976,0.72872,0.35264,1.15701,0.46025c0.42776,0.10707,0.87842,0.15981,1.35039,0.15981    c0.57531,0,1.08829-0.09003,1.53842-0.27061c0.45013-0.18058,0.80276-0.45013,1.05686-0.80863    c0.25517-0.35797,0.38248-0.79531,0.38248-1.31096c0-0.53909-0.16407-0.9711-0.49327-1.29551    c-0.32814-0.32441-0.84273-0.57158-1.54322-0.74151l-1.16287-0.27647c-0.29511-0.07404-0.51245-0.1646-0.65255-0.27167    c-0.1401-0.10654-0.21042-0.23812-0.21042-0.39313c0-0.13264,0.03516-0.25037,0.10494-0.35424    C102.34496,47.45181,102.46268,47.37084,102.62888,47.31118"></path>
	</g>
	<polygon points="85.48816,50.20041 88.44354,50.20041 88.44354,48.817 85.48816,48.817 85.48816,47.33291 89.2298,47.33291    89.2298,45.86108 83.58431,45.86108 83.58431,53.16751 89.36245,53.16751 89.36245,51.69461 85.48816,51.69461  "></polygon>
	<g>
		<path d="M93.49109,47.30037h1.35038c0.36916,0,0.64616,0.07351,0.83047,0.22107c0.18431,0.14809,0.27647,0.38034,0.27647,0.69783    c0,0.32441-0.09216,0.56093-0.27647,0.70848c-0.18432,0.14809-0.46132,0.2216-0.83047,0.2216h-1.35038V47.30037z     M97.14378,49.81308c0.47995-0.391,0.7202-0.95885,0.7202-1.70462c0-0.67972-0.24238-1.2236-0.72553-1.63271    c-0.48315-0.41018-1.1602-0.61473-2.03117-0.61473h-3.48701v7.30644h1.87082v-2.6688h1.1405l1.56079,2.6688h2.10307    l-1.9145-2.96711C96.66808,50.10447,96.9323,49.98568,97.14378,49.81308"></path>
	</g>
	<polygon points="78.58114,50.30002 78.19387,51.75055 77.79541,50.27818 76.51109,45.86108 74.50762,45.86108 77.0539,53.16751    79.28962,53.16751 81.82471,45.86108 79.88731,45.86108  "></polygon>
</g>
</svg>
